<svg width="60" height="56" viewBox="0 0 60 56" fill="none" xmlns="http://www.w3.org/2000/svg">
<path d="M12.4103 2.21979H47.8205C53.6195 2.21979 58.3205 6.9208 58.3205 12.7198V43.2802C58.3205 49.0792 53.6195 53.7802 47.8205 53.7802H12.4103C6.61128 53.7802 1.91028 49.0792 1.91028 43.2802V12.7198C1.91028 6.9208 6.61129 2.21979 12.4103 2.21979Z" fill="white"/>
<path d="M24.8748 11.5365C24.4739 11.9762 24.0212 12.4677 23.5168 13.0108C23.0125 13.5411 22.4822 14.0907 21.9261 14.6598C21.3829 15.2159 20.8397 15.7655 20.2966 16.3087C19.7534 16.8519 19.2425 17.3563 18.764 17.8219C19.3201 18.2098 19.9086 18.6884 20.5294 19.2574C21.1501 19.8265 21.758 20.4343 22.3529 21.0809C22.9478 21.7276 23.5039 22.3872 24.0212 23.0597C24.5515 23.7322 24.9912 24.3724 25.3404 24.9802H23.1289C22.7409 24.3724 22.2947 23.7645 21.7903 23.1567C21.2859 22.5359 20.7492 21.9474 20.1802 21.3913C19.6241 20.8223 19.055 20.2985 18.473 19.82C17.904 19.3415 17.3479 18.9341 16.8047 18.5978V24.9802H14.923V11.5365H16.8047V17.4727C17.2573 17.0459 17.7553 16.5674 18.2984 16.0371C18.8416 15.494 19.3783 14.9508 19.9086 14.4076C20.4388 13.8644 20.9367 13.3471 21.4023 12.8556C21.8808 12.3513 22.2818 11.9116 22.6051 11.5365H24.8748Z" fill="#00207F"/>
<path d="M12.4103 2.21979H47.8205C53.6195 2.21979 58.3205 6.9208 58.3205 12.7198V43.2802C58.3205 49.0792 53.6195 53.7802 47.8205 53.7802H12.4103C6.61128 53.7802 1.91028 49.0792 1.91028 43.2802V12.7198C1.91028 6.9208 6.61129 2.21979 12.4103 2.21979Z" stroke="#00207F" stroke-width="3"/>
</svg>
