<svg width="60" height="56" viewBox="0 0 60 56" fill="none" xmlns="http://www.w3.org/2000/svg">
<path d="M12.4103 2.21979H47.8205C53.6195 2.21979 58.3205 6.9208 58.3205 12.7198V43.2802C58.3205 49.0792 53.6195 53.7802 47.8205 53.7802H12.4103C6.61128 53.7802 1.91028 49.0792 1.91028 43.2802V12.7198C1.91028 6.9208 6.61129 2.21979 12.4103 2.21979Z" fill="white"/>
<path d="M23.9315 23.3523V24.9818H15.842V11.5381H17.7238V23.3523H23.9315Z" fill="#00207F"/>
<path d="M12.4103 2.21979H47.8205C53.6195 2.21979 58.3205 6.9208 58.3205 12.7198V43.2802C58.3205 49.0792 53.6195 53.7802 47.8205 53.7802H12.4103C6.61128 53.7802 1.91028 49.0792 1.91028 43.2802V12.7198C1.91028 6.9208 6.61129 2.21979 12.4103 2.21979Z" stroke="#00207F" stroke-width="3"/>
</svg>
